<svg width="32" height="32" viewBox="0 0 32 32" fill="none" xmlns="http://www.w3.org/2000/svg">
<path d="M29.7143 14.8572H20.5714C19.9403 14.8572 19.4286 15.3689 19.4286 16V29.7143C19.4286 30.3455 19.9403 30.8572 20.5714 30.8572H29.7143C30.3455 30.8572 30.8572 30.3455 30.8572 29.7143V16C30.8572 15.3689 30.3455 14.8572 29.7143 14.8572Z" stroke="#000001" stroke-linecap="round" stroke-linejoin="round"/>
<path d="M29.7143 1.14288H20.5714C19.9403 1.14288 19.4286 1.65456 19.4286 2.28574V6.88003C19.4286 7.51121 19.9403 8.02288 20.5714 8.02288H29.7143C30.3455 8.02288 30.8572 7.51121 30.8572 6.88003V2.28574C30.8572 1.65456 30.3455 1.14288 29.7143 1.14288Z" stroke="#000001" stroke-linecap="round" stroke-linejoin="round"/>
<path d="M11.4285 1.14288H2.28568C1.6545 1.14288 1.14282 1.65456 1.14282 2.28574V16C1.14282 16.6312 1.6545 17.1429 2.28568 17.1429H11.4285C12.0597 17.1429 12.5714 16.6312 12.5714 16V2.28574C12.5714 1.65456 12.0597 1.14288 11.4285 1.14288Z" stroke="#000001" stroke-linecap="round" stroke-linejoin="round"/>
<path d="M11.4285 23.9772H2.28568C1.6545 23.9772 1.14282 24.4888 1.14282 25.12V29.7143C1.14282 30.3455 1.6545 30.8572 2.28568 30.8572H11.4285C12.0597 30.8572 12.5714 30.3455 12.5714 29.7143V25.12C12.5714 24.4888 12.0597 23.9772 11.4285 23.9772Z" stroke="#000001" stroke-linecap="round" stroke-linejoin="round"/>
</svg>
