<svg width="16" height="16" viewBox="0 0 16 16" fill="none" xmlns="http://www.w3.org/2000/svg">
<path d="M8.57139 10.2857L5.14282 10.9029L5.71425 7.42859L12.2628 0.902875C12.3691 0.795756 12.4955 0.710734 12.6347 0.652713C12.774 0.594692 12.9234 0.564819 13.0743 0.564819C13.2251 0.564819 13.3745 0.594692 13.5138 0.652713C13.653 0.710734 13.7794 0.795756 13.8857 0.902875L15.0971 2.1143C15.2042 2.22055 15.2892 2.34695 15.3473 2.48622C15.4053 2.62548 15.4352 2.77486 15.4352 2.92573C15.4352 3.0766 15.4053 3.22598 15.3473 3.36525C15.2892 3.50452 15.2042 3.63092 15.0971 3.73716L8.57139 10.2857Z" stroke="#000001" stroke-linecap="round" stroke-linejoin="round"/>
<path d="M13.7143 10.8572V14.2858C13.7143 14.5889 13.5939 14.8796 13.3795 15.0939C13.1652 15.3082 12.8745 15.4286 12.5714 15.4286H1.71427C1.41116 15.4286 1.12047 15.3082 0.906146 15.0939C0.691819 14.8796 0.571411 14.5889 0.571411 14.2858V3.42862C0.571411 3.12552 0.691819 2.83483 0.906146 2.6205C1.12047 2.40617 1.41116 2.28577 1.71427 2.28577H5.14284" stroke="#000001" stroke-linecap="round" stroke-linejoin="round"/>
</svg>
