<svg width="32" height="32" viewBox="0 0 32 32" fill="none" xmlns="http://www.w3.org/2000/svg">
<path d="M11.4285 13.7143C14.2688 13.7143 16.5714 11.4118 16.5714 8.57145C16.5714 5.73112 14.2688 3.42859 11.4285 3.42859C8.58818 3.42859 6.28564 5.73112 6.28564 8.57145C6.28564 11.4118 8.58818 13.7143 11.4285 13.7143Z" stroke="#000001" stroke-linecap="round" stroke-linejoin="round"/>
<path d="M21.7142 30.8571H1.14282V28.5714C1.14282 25.8435 2.22649 23.2273 4.15544 21.2983C6.08438 19.3694 8.7006 18.2857 11.4285 18.2857C14.1565 18.2857 16.7727 19.3694 18.7016 21.2983C20.6306 23.2273 21.7142 25.8435 21.7142 28.5714V30.8571Z" stroke="#000001" stroke-linecap="round" stroke-linejoin="round"/>
<path d="M20.5714 3.42859C21.9354 3.42859 23.2435 3.97042 24.208 4.9349C25.1724 5.89937 25.7143 7.20748 25.7143 8.57145C25.7143 9.93542 25.1724 11.2435 24.208 12.208C23.2435 13.1725 21.9354 13.7143 20.5714 13.7143" stroke="#000001" stroke-linecap="round" stroke-linejoin="round"/>
<path d="M24.2285 18.72C26.1756 19.4607 27.8518 20.7751 29.0355 22.4894C30.2191 24.2036 30.8543 26.2369 30.8571 28.32V30.8572H27.4285" stroke="#000001" stroke-linecap="round" stroke-linejoin="round"/>
</svg>
