<svg width="36" height="32" viewBox="0 0 36 32" fill="none" xmlns="http://www.w3.org/2000/svg">
<path d="M31.4629 6.85714C31.3411 6.69187 31.1745 6.56496 30.9829 6.49142L17.2686 1.30285C17.1388 1.24621 16.9987 1.21698 16.8571 1.21698C16.7156 1.21698 16.5755 1.24621 16.4457 1.30285L2.73143 6.58285C2.55024 6.63084 2.38476 6.7254 2.25143 6.85714C2.09177 7.05029 2.00304 7.29227 2 7.54285V24.2743C2.00296 24.5025 2.07422 24.7247 2.20458 24.9121C2.33495 25.0995 2.51844 25.2435 2.73143 25.3257L16.4457 30.6057H16.8571H17.2686L30.9829 25.3257C31.1958 25.2435 31.3793 25.0995 31.5097 24.9121C31.6401 24.7247 31.7113 24.5025 31.7143 24.2743V7.63428C31.7336 7.35253 31.6436 7.07417 31.4629 6.85714V6.85714Z" stroke="#037ED1" stroke-linecap="round" stroke-linejoin="round"/>
<path d="M16.8572 30.7657V12.5714" stroke="#037ED1" stroke-linecap="round" stroke-linejoin="round"/>
<path d="M16.8572 12.5714V30.7657" stroke="#037ED1" stroke-linecap="round" stroke-linejoin="round"/>
<path d="M2.25146 6.94855L16.8572 12.5714L31.4629 6.94855" stroke="#037ED1" stroke-linecap="round" stroke-linejoin="round"/>
</svg>
