<svg width="16" height="16" viewBox="0 0 16 16" fill="none" xmlns="http://www.w3.org/2000/svg">
<path d="M2.88006 9.12909L0.849816 12.0376C0.758236 12.2159 0.715288 12.4153 0.7253 12.6155C0.735312 12.8158 0.797931 13.0098 0.906845 13.1782C1.00958 13.3425 1.15251 13.478 1.32214 13.5718C1.49177 13.6656 1.68251 13.7146 1.87634 13.7142H14.149C14.3429 13.7146 14.5336 13.6656 14.7032 13.5718C14.8729 13.478 15.0158 13.3425 15.1185 13.1782C15.2186 13.0048 15.2714 12.8081 15.2714 12.6079C15.2714 12.4077 15.2186 12.211 15.1185 12.0376L13.1453 9.12909" stroke="#000001" stroke-width="1.02895" stroke-linecap="round" stroke-linejoin="round"/>
<path d="M4.02059 2.28571C3.71809 2.28571 3.42798 2.40587 3.21407 2.61978C3.00017 2.83368 2.88 3.12379 2.88 3.42629V9.12922H13.1453V3.42629C13.1453 3.12379 13.0251 2.83368 12.8112 2.61978C12.5973 2.40587 12.3072 2.28571 12.0047 2.28571H4.02059Z" stroke="#000001" stroke-width="1.02895" stroke-linecap="round" stroke-linejoin="round"/>
</svg>
