<svg width="16" height="16" viewBox="0 0 16 16" fill="none" xmlns="http://www.w3.org/2000/svg">
<g clip-path="url(#clip0_5_1126)">
<path d="M13.06 0.496594C12.7545 0.190219 12.3283 -0.000218562 11.8614 1.88252e-07H9.88542L9.82789 0.284188C9.81702 0.337188 9.78783 0.38475 9.74639 0.418906C9.7047 0.453094 9.65464 0.472813 9.59623 0.473031C9.53761 0.472813 9.48733 0.453094 9.44567 0.418906C9.40442 0.384719 9.37502 0.337156 9.36461 0.284188L9.30661 1.88252e-07H6.69336L6.63561 0.284188C6.62495 0.337188 6.59573 0.38475 6.5543 0.418906C6.51261 0.453094 6.46236 0.472813 6.40395 0.473031C6.3453 0.472813 6.29523 0.453094 6.25358 0.418906C6.21214 0.384719 6.18292 0.337156 6.1723 0.284188L6.11458 1.88252e-07H4.13858C3.67164 -0.000218562 3.24545 0.190219 2.93998 0.496594C2.63361 0.802094 2.44314 1.22828 2.44336 1.69519V12.4103C2.44336 12.8598 2.62205 13.291 2.93998 13.6089L4.83445 15.5034C5.15239 15.8213 5.58355 16 6.03305 16H11.8614C12.3283 16.0002 12.7545 15.8098 13.06 15.5034C13.3664 15.1979 13.5568 14.7717 13.5566 14.3048V1.69519C13.5568 1.22828 13.3664 0.802094 13.06 0.496594ZM12.8474 14.3048C12.8471 14.5781 12.7375 14.8222 12.5586 15.002C12.3791 15.1809 12.135 15.2905 11.8614 15.2907H6.03305C5.7717 15.2907 5.5208 15.1868 5.3358 15.002L3.44133 13.1076C3.25655 12.9225 3.15261 12.6716 3.15261 12.4103V1.69519C3.15283 1.42188 3.26242 1.17753 3.44133 0.997969C3.62114 0.819063 3.86523 0.709469 4.13858 0.70925H5.58558C5.64195 0.807313 5.71511 0.89425 5.80158 0.965594C5.96442 1.10078 6.17636 1.18253 6.40395 1.18228C6.63152 1.1825 6.8437 1.10078 7.0063 0.965594C7.09258 0.89425 7.16573 0.807281 7.22236 0.70925H8.77761C8.83423 0.807313 8.90736 0.89425 8.99367 0.965594C9.15648 1.10078 9.36845 1.18253 9.59623 1.18228C9.82361 1.1825 10.0355 1.10078 10.1984 0.965594C10.2849 0.89425 10.358 0.807281 10.4144 0.70925H11.8614C12.135 0.7095 12.3791 0.819063 12.5586 0.997969C12.7375 1.17753 12.8471 1.42188 12.8474 1.69519V14.3048Z" fill="black" stroke="black" stroke-width="0.2"/>
<path d="M5.87979 7.85823L5.74348 7.83942C5.44842 7.79773 5.34263 7.7031 5.34263 7.55545C5.34263 7.39285 5.45973 7.27557 5.68663 7.27557C5.8986 7.27557 6.08788 7.34373 6.2847 7.47235C6.30351 7.48392 6.32232 7.47982 6.33748 7.46104L6.56845 7.1166C6.58723 7.09035 6.58338 7.07495 6.56095 7.06001C6.34517 6.89357 6.02745 6.7912 5.68663 6.7912C5.13048 6.7912 4.77495 7.10529 4.77495 7.57832C4.77495 8.03236 5.06638 8.27804 5.58835 8.35007L5.72467 8.36907C6.03129 8.41076 6.12185 8.50539 6.12185 8.65667C6.12185 8.83829 5.97057 8.96304 5.70179 8.96304C5.42957 8.96304 5.1986 8.83442 5.02854 8.69832C5.00954 8.68317 4.98692 8.68317 4.97151 8.70195L4.68413 9.03123C4.66532 9.05385 4.67282 9.08036 4.68798 9.09554C4.88839 9.28848 5.2781 9.44745 5.67913 9.44745C6.34513 9.44745 6.68954 9.10326 6.68954 8.63767C6.68957 8.17232 6.40945 7.93023 5.87979 7.85823Z" fill="black" stroke="black" stroke-width="0.2"/>
<path d="M7.80912 6.83289H7.32858C7.30593 6.83289 7.29077 6.84804 7.29077 6.8707V9.36798C7.29077 9.39064 7.30593 9.40579 7.32858 9.40579H7.80912C7.83174 9.40579 7.8469 9.39064 7.8469 9.36798V6.8707C7.8469 6.84807 7.83174 6.83289 7.80912 6.83289Z" fill="black" stroke="black" stroke-width="0.2"/>
<path d="M10.9228 6.83289H10.4801C10.45 6.83289 10.431 6.84442 10.4196 6.8707L9.78014 8.33876H9.76495L9.11439 6.8707C9.10305 6.84442 9.08405 6.83289 9.05367 6.83289H8.60349C8.58086 6.83289 8.56567 6.84804 8.56567 6.8707V9.36798C8.56567 9.39064 8.58083 9.40579 8.60349 9.40579H9.03127C9.05367 9.40579 9.06908 9.39064 9.06908 9.36798V7.9187H9.08402L9.56089 9.00476C9.57583 9.03873 9.5987 9.05389 9.63267 9.05389H9.89377C9.92774 9.05389 9.95039 9.03873 9.96558 9.00476L10.4425 7.9187H10.4574V9.36798C10.4574 9.39064 10.4726 9.40579 10.4952 9.40579H10.9228C10.9454 9.40579 10.9608 9.39064 10.9608 9.36798V6.8707C10.9609 6.84807 10.9455 6.83289 10.9228 6.83289Z" fill="black" stroke="black" stroke-width="0.2"/>
</g>
<defs>
<clipPath id="clip0_5_1126">
<rect width="16" height="16" fill="white"/>
</clipPath>
</defs>
</svg>
