<svg width="18" height="18" viewBox="0 0 18 18" fill="none" xmlns="http://www.w3.org/2000/svg">
<g clip-path="url(#clip0_70_5180)">
<path d="M8.3791 0.834755C8.16142 1.92744 8.2169 1.80366 7.9352 1.86768C6.8169 2.12805 5.69007 2.93476 4.99861 3.96768C4.69129 4.42866 4.5291 4.76585 4.3669 5.28658C4.16203 5.9311 4.12788 6.31951 4.12788 8.00122C4.12788 8.9061 4.11081 9.64451 4.08093 9.7939C4.05532 9.93049 3.96142 10.2037 3.86751 10.4C3.72666 10.6945 3.61142 10.8439 3.22727 11.2451C2.21995 12.2951 1.95105 12.978 1.95105 14.4634V15.2317H4.51629H7.07727L7.05166 15.4152C6.97056 15.9488 7.27361 16.7128 7.72605 17.1354C8.18703 17.5665 8.63946 17.75 9.24983 17.75C9.8602 17.75 10.3126 17.5665 10.7736 17.1354C11.2261 16.7128 11.5291 15.9488 11.448 15.4152L11.4224 15.2317H13.9919H16.5571L16.5358 14.3226C16.5187 13.5628 16.5017 13.3665 16.4248 13.1061C16.2114 12.3805 15.9425 11.9451 15.2639 11.2366C14.8882 10.8439 14.773 10.6945 14.6321 10.4C14.5382 10.2037 14.4443 9.93049 14.4187 9.7939C14.3889 9.64451 14.3718 8.9061 14.3718 8.00122C14.3718 6.88293 14.3547 6.34939 14.312 6.05488C14.1071 4.69756 13.3815 3.50244 12.2632 2.67439C11.7596 2.29878 10.7139 1.82927 10.3895 1.82927C10.3169 1.82927 10.3212 1.82927 10.1206 0.834755L10.0053 0.25H9.24983H8.49434L8.3791 0.834755ZM9.80471 3.24207C11.2303 3.46829 12.3657 4.51829 12.7754 5.99085C12.8352 6.20427 12.8523 6.5628 12.8779 8.14634C12.9078 10.1823 12.9078 10.1567 13.1553 10.8183C13.326 11.275 13.6248 11.7104 14.1157 12.2226C14.3632 12.4787 14.6279 12.7902 14.7004 12.9098C14.8242 13.0976 15.012 13.5543 15.012 13.661C15.012 13.678 12.4212 13.6951 9.24983 13.6951C6.08276 13.6951 3.48764 13.678 3.48764 13.661C3.48764 13.5713 3.66264 13.1274 3.76934 12.9439C3.83337 12.8329 4.09373 12.5256 4.34556 12.261C5.00715 11.5738 5.24617 11.1854 5.48093 10.4085C5.5919 10.05 5.5919 10.0287 5.62178 8.14634C5.65593 6.00793 5.66873 5.91402 6.0102 5.22683C6.22788 4.7872 6.40715 4.55244 6.79129 4.18963C7.598 3.41707 8.72056 3.06707 9.80471 3.24207ZM9.91995 15.411C9.98825 15.6244 9.91995 15.8506 9.72361 16.047C9.44617 16.3244 9.05349 16.3244 8.77605 16.047C8.54556 15.8165 8.48581 15.5049 8.63093 15.2744C8.648 15.2445 8.86995 15.2317 9.26264 15.2402L9.86873 15.253L9.91995 15.411Z" fill="white"/>
</g>
<defs>
<clipPath id="clip0_70_5180">
<rect width="17.5" height="17.5" fill="white" transform="translate(0.5 0.25)"/>
</clipPath>
</defs>
</svg>
