<svg width="32" height="32" viewBox="0 0 32 32" fill="none" xmlns="http://www.w3.org/2000/svg">
<path d="M31.0412 19.508L28.0999 17.208C28.1386 16.8533 28.1692 16.4387 28.1692 16C28.1692 15.5613 28.1372 15.1467 28.0999 14.792L31.0439 12.4907C31.5906 12.0587 31.7412 11.292 31.3919 10.6534L28.3332 5.36137C27.9985 4.75206 27.2479 4.47338 26.5639 4.72538L23.0932 6.11869C22.4292 5.63869 21.7319 5.23338 21.0105 4.90938L20.4825 1.22806C20.3959 0.528 19.7879 0 19.0692 0H12.9359C12.2172 0 11.6092 0.528 11.5239 1.21469L10.9946 4.90938C10.2959 5.22538 9.60926 5.62406 8.91457 6.12006L5.43457 4.72275C4.76926 4.46275 4.01189 4.73744 3.67857 5.34806L0.615887 10.6481C0.254574 11.2587 0.402574 12.0507 0.962574 12.4934L3.90389 14.7921C3.8572 15.2428 3.83457 15.6334 3.83457 16.0001C3.83457 16.3668 3.85726 16.7574 3.90126 17.2081L0.957262 19.5107C0.411887 19.9427 0.262512 20.7093 0.610512 21.348L3.6692 26.64C4.0012 27.248 4.75051 27.5253 5.43851 27.276L8.9092 25.8827C9.5732 26.3614 10.2719 26.7667 10.9932 27.092L11.5212 30.772C11.6079 31.472 12.2159 32 12.9345 32H19.0678C19.7865 32 20.3945 31.472 20.4798 30.7853L21.0091 27.092C21.7078 26.776 22.3944 26.3773 23.0891 25.8813L26.5691 27.2786C27.2318 27.5359 27.9918 27.2639 28.3251 26.6533L31.3998 21.3346C31.7399 20.7107 31.5905 19.944 31.0412 19.508ZM30.2345 20.6813L27.0585 26.0386L23.2412 24.5053C23.0252 24.4186 22.7799 24.452 22.5932 24.5906C21.7665 25.2093 20.9679 25.6746 20.1492 26.0093C19.9305 26.0986 19.7745 26.2973 19.7412 26.532L19.0679 30.6667L12.8452 30.596L12.2625 26.5333C12.2278 26.2986 12.0732 26.1 11.8545 26.0106C11.0025 25.6613 10.1825 25.1853 9.41582 24.5959C9.29714 24.5039 9.15314 24.4573 9.00914 24.4573C8.92514 24.4573 8.84114 24.4719 8.75982 24.5053L4.83314 25.9866L1.77445 20.6946C1.74645 20.6426 1.75176 20.5826 1.78376 20.5572L5.01976 18.0279C5.20376 17.8839 5.29976 17.6519 5.27045 17.4199C5.19976 16.8612 5.16776 16.4093 5.16776 15.9999C5.16776 15.5906 5.20107 15.1399 5.27045 14.5799C5.29976 14.3466 5.20376 14.1159 5.01976 13.9719L1.76789 11.32L4.94389 5.96269L8.7612 7.496C8.97851 7.584 9.22251 7.55069 9.41051 7.41069C10.2358 6.79069 11.0358 6.32669 11.8545 5.992C12.0732 5.90131 12.2278 5.70269 12.2612 5.46931L12.9359 1.33331L19.1599 1.40531L19.7412 5.46931C19.7759 5.704 19.9305 5.90263 20.1492 5.992C20.9999 6.34 21.8199 6.816 22.5879 7.40669C22.7759 7.55069 23.0226 7.58537 23.2426 7.496L27.1693 6.01469L30.2279 11.3067C30.2559 11.3587 30.2506 11.4174 30.2186 11.4427L26.9826 13.972C26.7986 14.116 26.7026 14.3467 26.7319 14.58C26.7826 14.9853 26.8346 15.472 26.8346 16C26.8346 16.5293 26.7826 17.0147 26.7319 17.42C26.7026 17.652 26.7986 17.884 26.9826 18.028L30.2146 20.556C30.2492 20.584 30.2559 20.644 30.2345 20.6813Z" fill="black"/>
<path d="M16.0012 9.33331C12.3252 9.33331 9.33447 12.324 9.33447 16C9.33447 19.676 12.3252 22.6667 16.0012 22.6667C19.6772 22.6667 22.6678 19.676 22.6678 16C22.6678 12.324 19.6772 9.33331 16.0012 9.33331ZM16.0012 21.3333C13.0598 21.3333 10.6678 18.9413 10.6678 16C10.6678 13.0587 13.0598 10.6667 16.0012 10.6667C18.9425 10.6667 21.3345 13.0587 21.3345 16C21.3345 18.9413 18.9425 21.3333 16.0012 21.3333Z" fill="black"/>
</svg>
