<svg width="20" height="16" viewBox="0 0 20 16" fill="none" xmlns="http://www.w3.org/2000/svg">
<path fill-rule="evenodd" clip-rule="evenodd" d="M9.83415 10.633C10.1465 10.3206 10.6531 10.3206 10.9655 10.633L14.3997 14.0672L17.834 10.633C18.1464 10.3206 18.6529 10.3206 18.9653 10.633C19.2777 10.9454 19.2777 11.4519 18.9653 11.7643L14.9654 15.7642C14.653 16.0766 14.1465 16.0766 13.8341 15.7642L9.83415 11.7643C9.52176 11.4519 9.52176 10.9454 9.83415 10.633Z" fill="#262626"/>
<path fill-rule="evenodd" clip-rule="evenodd" d="M14.3998 4.80042C14.8416 4.80042 15.1998 5.15857 15.1998 5.6004V15.2002C15.1998 15.642 14.8416 16.0002 14.3998 16.0002C13.9579 16.0002 13.5998 15.642 13.5998 15.2002V5.6004C13.5998 5.15857 13.9579 4.80042 14.3998 4.80042Z" fill="#262626"/>
<path fill-rule="evenodd" clip-rule="evenodd" d="M0 7.19879C0 6.75696 0.358168 6.3988 0.799983 6.3988H7.99983C8.44166 6.3988 8.79981 6.75696 8.79981 7.19879C8.79981 7.64062 8.44166 7.99877 7.99983 7.99877H0.799983C0.358168 7.99877 0 7.64062 0 7.19879Z" fill="#262626"/>
<path fill-rule="evenodd" clip-rule="evenodd" d="M0 0.799983C0 0.358168 0.358168 0 0.799983 0H14.3997C14.8415 0 15.1997 0.358168 15.1997 0.799983C15.1997 1.2418 14.8415 1.59997 14.3997 1.59997H0.799983C0.358168 1.59997 0 1.2418 0 0.799983Z" fill="#262626"/>
<path fill-rule="evenodd" clip-rule="evenodd" d="M0 13.6003C0 13.1584 0.358168 12.8003 0.799983 12.8003H6.39986C6.84169 12.8003 7.19984 13.1584 7.19984 13.6003C7.19984 14.0421 6.84169 14.4003 6.39986 14.4003H0.799983C0.358168 14.4003 0 14.0421 0 13.6003Z" fill="#262626"/>
</svg>
