<svg width="16" height="16" viewBox="0 0 16 16" fill="none" xmlns="http://www.w3.org/2000/svg">
<path d="M13.6471 0H4.23529C3.61126 0 3.01278 0.247898 2.57151 0.689161C2.13025 1.13042 1.88235 1.7289 1.88235 2.35294V3.29412C1.88235 3.41893 1.93193 3.53862 2.02019 3.62687C2.10844 3.71513 2.22813 3.76471 2.35294 3.76471C2.47775 3.76471 2.59744 3.71513 2.6857 3.62687C2.77395 3.53862 2.82353 3.41893 2.82353 3.29412V2.35294C2.82353 1.97852 2.97227 1.61943 3.23703 1.35467C3.50178 1.08992 3.86087 0.941176 4.23529 0.941176H8.47059V15.0588H4.23529C3.86087 15.0588 3.50178 14.9101 3.23703 14.6453C2.97227 14.3806 2.82353 14.0215 2.82353 13.6471V12.7059C2.82353 12.5811 2.77395 12.4614 2.6857 12.3731C2.59744 12.2849 2.47775 12.2353 2.35294 12.2353C2.22813 12.2353 2.10844 12.2849 2.02019 12.3731C1.93193 12.4614 1.88235 12.5811 1.88235 12.7059V13.6471C1.88235 14.2711 2.13025 14.8696 2.57151 15.3108C3.01278 15.7521 3.61126 16 4.23529 16H13.6471C14.2711 16 14.8696 15.7521 15.3108 15.3108C15.7521 14.8696 16 14.2711 16 13.6471V2.35294C16 1.7289 15.7521 1.13042 15.3108 0.689161C14.8696 0.247898 14.2711 0 13.6471 0ZM15.0588 13.6471C15.0588 14.0215 14.9101 14.3806 14.6453 14.6453C14.3806 14.9101 14.0215 15.0588 13.6471 15.0588H9.41177V0.941176H13.6471C14.0215 0.941176 14.3806 1.08992 14.6453 1.35467C14.9101 1.61943 15.0588 1.97852 15.0588 2.35294V13.6471ZM2.82353 6.11765V7.52941H4.23529C4.3601 7.52941 4.4798 7.57899 4.56805 7.66724C4.6563 7.7555 4.70588 7.87519 4.70588 8C4.70588 8.12481 4.6563 8.2445 4.56805 8.33276C4.4798 8.42101 4.3601 8.47059 4.23529 8.47059H2.82353V9.88235C2.82353 10.0072 2.77395 10.1269 2.6857 10.2151C2.59744 10.3034 2.47775 10.3529 2.35294 10.3529C2.22813 10.3529 2.10844 10.3034 2.02019 10.2151C1.93193 10.1269 1.88235 10.0072 1.88235 9.88235V8.47059H0.470588C0.34578 8.47059 0.226085 8.42101 0.137832 8.33276C0.0495798 8.2445 0 8.12481 0 8C0 7.87519 0.0495798 7.7555 0.137832 7.66724C0.226085 7.57899 0.34578 7.52941 0.470588 7.52941H1.88235V6.11765C1.88235 5.99284 1.93193 5.87314 2.02019 5.78489C2.10844 5.69664 2.22813 5.64706 2.35294 5.64706C2.47775 5.64706 2.59744 5.69664 2.6857 5.78489C2.77395 5.87314 2.82353 5.99284 2.82353 6.11765Z" fill="#262626"/>
</svg>
