<svg width="16" height="16" viewBox="0 0 16 16" fill="none" xmlns="http://www.w3.org/2000/svg">
<path d="M5.71425 6.85721C7.13441 6.85721 8.28568 5.70594 8.28568 4.28578C8.28568 2.86562 7.13441 1.71436 5.71425 1.71436C4.29409 1.71436 3.14282 2.86562 3.14282 4.28578C3.14282 5.70594 4.29409 6.85721 5.71425 6.85721Z" stroke="#006192" stroke-linecap="round" stroke-linejoin="round"/>
<path d="M10.8571 15.4285H0.571411V14.2857C0.571411 12.9217 1.11325 11.6136 2.07772 10.6491C3.04219 9.68466 4.3503 9.14282 5.71427 9.14282C7.07824 9.14282 8.38634 9.68466 9.35082 10.6491C10.3153 11.6136 10.8571 12.9217 10.8571 14.2857V15.4285Z" stroke="#006192" stroke-linecap="round" stroke-linejoin="round"/>
<path d="M10.2856 1.71436C10.9676 1.71436 11.6217 1.98527 12.1039 2.46751C12.5862 2.94975 12.8571 3.6038 12.8571 4.28578C12.8571 4.96777 12.5862 5.62182 12.1039 6.10406C11.6217 6.58629 10.9676 6.85721 10.2856 6.85721" stroke="#006192" stroke-linecap="round" stroke-linejoin="round"/>
<path d="M12.1143 9.36011C13.0878 9.73045 13.9259 10.3877 14.5177 11.2448C15.1096 12.1019 15.4272 13.1185 15.4285 14.1601V15.4287H13.7143" stroke="#006192" stroke-linecap="round" stroke-linejoin="round"/>
</svg>
