<svg width="16" height="16" viewBox="0 0 16 16" fill="none" xmlns="http://www.w3.org/2000/svg">
<path d="M15.12 7.2343C15.3095 7.4443 15.4145 7.71713 15.4145 8.00002C15.4145 8.2829 15.3095 8.55573 15.12 8.76573C13.92 10.0572 11.1886 12.5714 8.00002 12.5714C4.81144 12.5714 2.08002 10.0572 0.880016 8.76573C0.690484 8.55573 0.585571 8.2829 0.585571 8.00002C0.585571 7.71713 0.690484 7.4443 0.880016 7.2343C2.08002 5.94287 4.81144 3.42859 8.00002 3.42859C11.1886 3.42859 13.92 5.94287 15.12 7.2343Z" stroke="#000001" stroke-linecap="round" stroke-linejoin="round"/>
<path d="M8.00007 10.2858C9.26243 10.2858 10.2858 9.26243 10.2858 8.00007C10.2858 6.7377 9.26243 5.71436 8.00007 5.71436C6.7377 5.71436 5.71436 6.7377 5.71436 8.00007C5.71436 9.26243 6.7377 10.2858 8.00007 10.2858Z" stroke="#000001" stroke-linecap="round" stroke-linejoin="round"/>
</svg>
